#!OML:ASF X:\für Bonn\!DataBase\2005_08_11_Bastian_Final\c3d\Bastian.ASF
:FULLY-SPECIFIED
:DEGREES
193
root -4.25972 17.0576 1.13157 477.986 -144.404 21.7375
lowerback 18.5949 3.88994 -12.6068
upperback 0.252268 1.08073 -10.1196
thorax -10.3633 0.788793 -4.49948
lowerneck -32.4546 -2.9116 -0.600801
upperneck -9.08311 -5.16839 7.23137
head 2.10215 -2.98578 1.87179
rclavicle -1.35969e-013 -3.4191e-014
rhumerus 64.4844 -2.0599 -29.8045
rradius 32.3704
rwrist -82.0915
rhand -60.669 -45.849
rfingers 7.12502
rthumb -32.7885 -72.8936
lclavicle -1.35969e-013 -3.4191e-014
lhumerus 67.8194 23.8666 -2.72
lradius 43.3329
lwrist 59.9022
lhand -28.6856 -9.5896
lfingers 7.12502
lthumb -2.0481 20.3803
rfemur 33.0302 -11.0771 -4.69941
rtibia 58.2924
rfoot 2.33951 2.14213
rtoes -8.05464
lfemur -41.7619 26.0855 30.2937
ltibia 83.1033
lfoot -22.3806 9.99201
ltoes 13.5301
194
root -4.12448 17.0266 0.964234 479.393 -143.406 19.9878
lowerback 18.0474 3.55741 -11.9373
upperback 0.11951 0.929686 -9.82309
thorax -10.1835 0.694379 -4.44736
lowerneck -32.2909 -3.03925 -0.591296
upperneck -8.85049 -5.31199 7.23161
head 2.16328 -3.02906 1.85313
rclavicle -1.79701e-013 -3.97569e-014
rhumerus 63.8689 -1.47543 -30.2663
rradius 32.9068
rwrist -82.3453
rhand -60.4695 -45.9715
rfingers 7.12502
rthumb -32.5987 -73.0555
lclavicle -1.79701e-013 -3.97569e-014
lhumerus 67.3136 23.547 -4.01119
lradius 43.5591
lwrist 60.5283
lhand -28.7474 -9.59808
lfingers 7.12502
lthumb -2.10771 20.3713
rfemur 32.8948 -10.8314 -4.69828
rtibia 57.6661
rfoot 1.94728 1.33686
rtoes -6.69151
lfemur -40.4961 25.6998 30.8324
ltibia 83.3084
lfoot -22.7741 10.4456
ltoes 14.1866
195
root -3.99718 16.9987 0.801773 480.845 -142.384 18.1742
lowerback 17.5377 3.21567 -11.1565
upperback 0.0017488 0.774756 -9.51527
thorax -10.0059 0.592708 -4.45099
lowerneck -32.2354 -3.16631 -0.649363
upperneck -8.60562 -5.44069 7.28537
head 2.24351 -3.06135 1.86288
rclavicle 1.53462e-013 -3.81667e-014
rhumerus 63.3141 -0.901893 -30.6794
rradius 33.4224
rwrist -82.5655
rhand -60.2984 -46.0386
rfingers 7.12502
rthumb -32.4359 -73.1562
lclavicle 1.53462e-013 -3.81667e-014
lhumerus 66.8075 23.2624 -5.34708
lradius 43.7489
lwrist 61.2257
lhand -28.7842 -9.57769
lfingers 7.12502
lthumb -2.1433 20.3913
rfemur 32.6889 -10.4467 -4.48415
rtibia 56.8839
rfoot 1.59288 0.710671
rtoes -5.26758
lfemur -39.28 25.3082 31.4097
ltibia 83.4849
lfoot -23.1328 10.8467
ltoes 14.8732
196
root -3.87736 16.9743 0.644182 482.331 -141.294 16.2847
lowerback 17.0681 2.88605 -10.2491
upperback -0.0980748 0.652503 -9.16792
thorax -9.82955 0.502485 -4.4972
lowerneck -32.2286 -3.32415 -0.812394
upperneck -8.38621 -5.57854 7.39832
head 2.3267 -3.09565 1.90685
rclavicle -2.3059e-014 -4.53229e-014
rhumerus 62.7805 -0.345558 -30.9469
rradius 33.9526
rwrist -82.7808
rhand -60.121 -46.38
rfingers 7.12502
rthumb -32.2671 -73.532
lclavicle -2.3059e-014 -4.53229e-014
lhumerus 66.3703 23.0025 -6.54084
lradius 43.8844
lwrist 61.7964
lhand -28.8211 -9.64691
lfingers 7.12502
lthumb -2.17896 20.3217
rfemur 32.393 -9.93093 -4.04861
rtibia 55.9849
rfoot 1.26639 0.290957
rtoes -4.09724
lfemur -38.0658 24.9305 32.0717
ltibia 83.6397
lfoot -23.4751 11.1599
ltoes 15.7022
197
root -3.76556 16.9581 0.492846 483.815 -140.225 14.3663
lowerback 16.6425 2.5563 -9.29563
upperback -0.162293 0.520238 -8.83327
thorax -9.63969 0.403869 -4.58868
lowerneck -32.3144 -3.44266 -0.902392
upperneck -8.1324 -5.6968 7.47417
head 2.42706 -3.12278 1.92843
rclavicle 7.71285e-014 5.00937e-014
rhumerus 62.3263 0.229557 -30.9664
rradius 34.4631
rwrist -83.1169
rhand -59.995 -46.8016
rfingers 7.12502
rthumb -32.1471 -73.9779
lclavicle 7.71285e-014 5.00937e-014
lhumerus 65.9083 22.8063 -7.84017
lradius 43.9925
lwrist 62.3997
lhand -28.8772 -9.58341
lfingers 7.12502
lthumb -2.23311 20.3847
rfemur 32.0517 -9.28059 -3.54587
rtibia 54.9713
rfoot 0.907182 0.140024
rtoes -3.2448
lfemur -36.8702 24.5258 32.7031
ltibia 83.7922
lfoot -23.8818 11.277
ltoes 17.2103
